<?xml version="1.0" standalone="no"?>
<!DOCTYPE svg PUBLIC "-//W3C//DTD SVG 1.1//EN" "http://www.w3.org/Graphics/SVG/1.1/DTD/svg11.dtd">
<svg version="1.1" xmlns="http://www.w3.org/2000/svg" viewBox="0 0 511.83328465123986 511.83328465123986" width="511.83328465123986" height="511.83328465123986"><!-- svg-source:excalidraw --><metadata></metadata><defs><style class="style-fonts">
      </style></defs><rect x="0" y="0" width="511.83328465123986" height="511.83328465123986" fill="#ffffff"></rect><g stroke-linecap="round" transform="translate(10 10) rotate(0 245.91664232561993 245.91664232561993)"><path d="M32 0 C136.91 -0.86, 242.49 -1.43, 459.83 0 M32 0 C129.14 -0.4, 225.22 -0.5, 459.83 0 M459.83 0 C480.36 1.11, 492.06 11.31, 491.83 32 M459.83 0 C482.58 -1.22, 493.51 10.07, 491.83 32 M491.83 32 C494.03 127.71, 492.87 221.49, 491.83 459.83 M491.83 32 C491.47 181.49, 491.34 331.95, 491.83 459.83 M491.83 459.83 C493.15 479.81, 481.52 491.24, 459.83 491.83 M491.83 459.83 C492.74 481.32, 482.55 490.76, 459.83 491.83 M459.83 491.83 C336.43 491.71, 212.68 491.02, 32 491.83 M459.83 491.83 C331.62 492.28, 204.04 493.1, 32 491.83 M32 491.83 C9.68 491.69, -0.36 480.43, 0 459.83 M32 491.83 C12.91 490.68, 0.34 479.59, 0 459.83 M0 459.83 C1.97 332.87, 1.99 205.25, 0 32 M0 459.83 C-2 358.32, -1.29 256.3, 0 32 M0 32 C1.28 12.11, 11.29 -1.29, 32 0 M0 32 C-0.45 8.4, 9.28 0.98, 32 0" stroke="#1e1e1e" stroke-width="4" fill="none"></path></g><g transform="translate(51.8403580729082 159.3608089784043) rotate(0 199.45576214343816 24.72189021502186)" stroke="none"><path fill="#1e1e1e" d="M 7.76,-5.41 Q 7.76,-5.41 13.23,3.38 18.69,12.18 22.26,16.98 25.84,21.79 29.29,25.56 32.75,29.33 36.06,32.55 39.36,35.77 43.15,39.57 46.94,43.38 54.52,50.64 62.11,57.91 65.90,61.00 69.68,64.09 75.15,59.03 80.61,53.97 84.88,50.86 89.14,47.75 92.57,44.71 95.99,41.66 99.27,38.56 102.54,35.46 105.44,32.12 108.34,28.78 112.88,23.74 117.42,18.71 119.91,14.70 122.39,10.69 125.60,6.51 128.80,2.33 131.65,-0.85 134.49,-4.04 146.96,-8.65 159.43,-13.25 163.17,-9.21 166.92,-5.16 170.40,-0.15 173.88,4.85 176.58,8.32 179.28,11.79 183.70,17.11 188.13,22.43 192.21,27.14 196.29,31.85 199.91,35.08 203.53,38.30 207.65,41.42 211.78,44.54 215.55,47.51 219.31,50.49 223.37,52.76 227.42,55.03 221.80,56.43 216.18,57.82 219.05,54.48 221.93,51.14 231.61,40.44 241.29,29.75 247.61,23.85 253.94,17.96 259.65,12.89 265.35,7.83 270.27,3.11 275.19,-1.60 279.61,-6.06 284.03,-10.53 288.81,-16.34 293.60,-22.16 296.04,-26.03 298.49,-29.91 299.19,-31.38 299.89,-32.84 300.78,-33.86 301.66,-34.89 302.76,-35.67 303.87,-36.45 305.13,-36.94 306.38,-37.43 307.72,-37.61 309.06,-37.79 310.41,-37.64 311.75,-37.50 313.02,-37.03 314.29,-36.57 315.41,-35.81 316.53,-35.06 317.44,-34.06 318.34,-33.05 318.99,-31.86 319.63,-30.68 319.97,-29.37 320.30,-28.06 320.32,-26.71 320.33,-25.36 320.03,-24.04 319.72,-22.73 319.10,-21.52 318.49,-20.32 318.02,-27.29 317.54,-34.27 322.56,-26.15 327.58,-18.02 329.81,-13.80 332.05,-9.57 335.87,-4.60 339.70,0.35 342.94,3.71 346.18,7.07 351.64,11.01 357.10,14.94 362.51,17.84 367.93,20.75 372.24,22.47 376.55,24.18 381.55,25.92 386.54,27.67 391.21,28.87 395.87,30.07 400.23,31.73 404.59,33.38 406.21,34.58 407.83,35.78 408.99,37.43 410.14,39.08 410.70,41.02 411.27,42.95 411.18,44.96 411.10,46.98 410.38,48.86 409.66,50.74 408.38,52.29 407.09,53.84 405.38,54.91 403.67,55.97 401.71,56.43 399.74,56.88 397.74,56.69 395.73,56.50 393.89,55.68 392.05,54.86 390.57,53.49 389.09,52.12 388.13,50.36 387.16,48.59 386.81,46.61 386.45,44.62 386.75,42.63 387.05,40.64 387.98,38.85 388.90,37.05 390.34,35.65 391.78,34.24 393.60,33.37 395.42,32.51 397.42,32.26 399.42,32.02 401.39,32.43 403.37,32.83 405.11,33.85 406.84,34.87 408.17,36.38 409.49,37.90 410.26,39.76 411.03,41.63 411.17,43.64 411.30,45.65 410.79,47.59 410.27,49.54 409.17,51.22 408.06,52.91 406.47,54.15 404.88,55.39 402.98,56.05 401.08,56.72 399.06,56.75 397.05,56.77 395.13,56.15 393.22,55.54 393.22,55.54 393.22,55.54 391.35,54.61 389.48,53.68 384.48,51.98 379.48,50.28 373.76,48.67 368.03,47.06 362.92,45.27 357.81,43.48 350.27,39.49 342.74,35.50 337.40,31.34 332.07,27.18 328.39,23.17 324.72,19.16 320.85,13.88 316.97,8.59 314.50,4.84 312.03,1.09 309.71,-3.24 307.38,-7.59 305.47,-12.21 303.56,-16.82 301.72,-24.83 299.89,-32.84 300.78,-33.86 301.66,-34.89 302.76,-35.67 303.87,-36.45 305.13,-36.94 306.38,-37.43 307.72,-37.61 309.06,-37.79 310.41,-37.64 311.75,-37.50 313.02,-37.03 314.29,-36.57 315.41,-35.81 316.53,-35.06 317.44,-34.06 318.34,-33.06 318.99,-31.87 319.63,-30.68 319.97,-29.37 320.30,-28.06 320.32,-26.71 320.34,-25.36 320.03,-24.04 319.72,-22.73 319.10,-21.52 318.49,-20.32 317.15,-18.57 315.81,-16.81 312.41,-12.87 309.01,-8.93 303.23,-3.20 297.44,2.52 293.07,7.09 288.69,11.65 283.89,16.82 279.10,21.98 274.37,27.07 269.63,32.15 264.92,38.46 260.20,44.78 255.03,52.85 249.85,60.92 247.19,64.90 244.54,68.87 241.18,73.49 237.83,78.10 233.82,81.05 229.82,83.99 222.20,82.97 214.58,81.96 210.34,79.40 206.11,76.84 202.65,73.81 199.19,70.77 195.41,67.15 191.64,63.52 187.25,60.16 182.86,56.80 179.48,53.51 176.09,50.21 171.41,45.00 166.74,39.78 163.73,36.13 160.71,32.48 157.83,28.63 154.94,24.78 151.56,20.12 148.17,15.46 145.11,10.20 142.06,4.94 152.20,3.56 162.35,2.17 159.09,6.51 155.84,10.85 152.55,14.02 149.26,17.19 144.90,21.77 140.55,26.34 136.99,30.68 133.44,35.02 129.06,39.13 124.69,43.24 121.02,47.34 117.35,51.43 113.78,54.66 110.22,57.89 106.01,61.54 101.80,65.18 97.83,68.05 93.85,70.93 88.80,75.42 83.75,79.91 78.90,83.47 74.06,87.03 68.55,86.48 63.05,85.94 59.30,82.23 55.56,78.52 52.45,74.99 49.35,71.46 41.31,63.97 33.27,56.49 29.57,52.49 25.88,48.49 22.56,44.69 19.25,40.89 15.58,36.34 11.91,31.79 8.43,26.77 4.96,21.75 -1.40,13.58 -7.76,5.41 -8.30,4.40 -8.83,3.39 -9.11,2.29 -9.39,1.18 -9.39,0.04 -9.40,-1.09 -9.13,-2.20 -8.86,-3.31 -8.34,-4.33 -7.81,-5.34 -7.06,-6.20 -6.31,-7.05 -5.37,-7.71 -4.43,-8.36 -3.37,-8.77 -2.30,-9.18 -1.17,-9.32 -0.04,-9.46 1.09,-9.33 2.22,-9.20 3.29,-8.80 4.36,-8.40 5.30,-7.75 6.24,-7.11 7.00,-6.26 7.76,-5.41 7.76,-5.41 L 7.76,-5.41 Z"></path></g><g transform="translate(59.37779286389224 286.78213734173005) rotate(0 199.45576214343814 24.72189021502186)" stroke="none"><path fill="#1e1e1e" d="M 7.76,-5.41 Q 7.76,-5.41 13.23,3.38 18.69,12.18 22.26,16.98 25.84,21.79 29.29,25.56 32.75,29.33 36.06,32.55 39.36,35.77 43.15,39.57 46.94,43.38 54.52,50.64 62.11,57.91 65.90,61.00 69.68,64.09 75.15,59.03 80.61,53.97 84.88,50.86 89.14,47.75 92.57,44.71 95.99,41.66 99.27,38.56 102.54,35.46 105.44,32.12 108.34,28.78 112.88,23.74 117.42,18.71 119.91,14.70 122.39,10.69 125.60,6.51 128.80,2.33 131.65,-0.85 134.49,-4.04 146.96,-8.65 159.43,-13.25 163.17,-9.21 166.92,-5.16 170.40,-0.15 173.88,4.85 176.58,8.32 179.28,11.79 183.70,17.11 188.13,22.43 192.21,27.14 196.29,31.85 199.91,35.08 203.53,38.30 207.65,41.42 211.78,44.54 215.55,47.51 219.31,50.49 223.37,52.76 227.42,55.03 221.80,56.43 216.18,57.82 219.05,54.48 221.93,51.14 231.61,40.44 241.29,29.75 247.61,23.85 253.94,17.96 259.65,12.89 265.35,7.83 270.27,3.11 275.19,-1.60 279.61,-6.06 284.03,-10.53 288.81,-16.34 293.60,-22.16 296.04,-26.03 298.49,-29.91 299.19,-31.38 299.89,-32.84 300.78,-33.86 301.66,-34.89 302.76,-35.67 303.87,-36.45 305.13,-36.94 306.38,-37.43 307.72,-37.61 309.06,-37.79 310.41,-37.64 311.75,-37.50 313.02,-37.03 314.29,-36.57 315.41,-35.81 316.53,-35.06 317.44,-34.06 318.34,-33.05 318.99,-31.86 319.63,-30.68 319.97,-29.37 320.30,-28.06 320.32,-26.71 320.33,-25.36 320.03,-24.04 319.72,-22.73 319.10,-21.52 318.49,-20.32 318.02,-27.29 317.54,-34.27 322.56,-26.15 327.58,-18.02 329.81,-13.80 332.05,-9.57 335.87,-4.60 339.70,0.35 342.94,3.71 346.18,7.07 351.64,11.01 357.10,14.94 362.51,17.84 367.93,20.75 372.24,22.47 376.55,24.18 381.55,25.92 386.54,27.67 391.21,28.87 395.87,30.07 400.23,31.73 404.59,33.38 406.21,34.58 407.83,35.78 408.99,37.43 410.14,39.08 410.70,41.02 411.27,42.95 411.18,44.96 411.10,46.98 410.38,48.86 409.66,50.74 408.38,52.29 407.09,53.84 405.38,54.91 403.67,55.97 401.71,56.43 399.74,56.88 397.74,56.69 395.73,56.50 393.89,55.68 392.05,54.86 390.57,53.49 389.09,52.12 388.13,50.36 387.16,48.59 386.81,46.61 386.45,44.62 386.75,42.63 387.05,40.64 387.98,38.85 388.90,37.05 390.34,35.65 391.78,34.24 393.60,33.37 395.42,32.51 397.42,32.26 399.42,32.02 401.39,32.43 403.37,32.83 405.11,33.85 406.84,34.87 408.17,36.38 409.49,37.90 410.26,39.76 411.03,41.63 411.17,43.64 411.30,45.65 410.79,47.59 410.27,49.54 409.17,51.22 408.06,52.91 406.47,54.15 404.88,55.39 402.98,56.05 401.08,56.72 399.06,56.75 397.05,56.77 395.13,56.15 393.22,55.54 393.22,55.54 393.22,55.54 391.35,54.61 389.48,53.68 384.48,51.98 379.48,50.28 373.76,48.67 368.03,47.06 362.92,45.27 357.81,43.48 350.27,39.49 342.74,35.50 337.40,31.34 332.07,27.18 328.39,23.17 324.72,19.16 320.85,13.88 316.97,8.59 314.50,4.84 312.03,1.09 309.71,-3.24 307.38,-7.59 305.47,-12.21 303.56,-16.82 301.72,-24.83 299.89,-32.84 300.78,-33.86 301.66,-34.89 302.76,-35.67 303.87,-36.45 305.13,-36.94 306.38,-37.43 307.72,-37.61 309.06,-37.79 310.41,-37.64 311.75,-37.50 313.02,-37.03 314.29,-36.57 315.41,-35.81 316.53,-35.06 317.44,-34.06 318.34,-33.06 318.99,-31.87 319.63,-30.68 319.97,-29.37 320.30,-28.06 320.32,-26.71 320.34,-25.36 320.03,-24.04 319.72,-22.73 319.10,-21.52 318.49,-20.32 317.15,-18.57 315.81,-16.81 312.41,-12.87 309.01,-8.93 303.23,-3.20 297.44,2.52 293.07,7.09 288.69,11.65 283.89,16.82 279.10,21.98 274.37,27.07 269.63,32.15 264.92,38.46 260.20,44.78 255.03,52.85 249.85,60.92 247.19,64.90 244.54,68.87 241.18,73.49 237.83,78.10 233.82,81.05 229.82,83.99 222.20,82.97 214.58,81.96 210.34,79.40 206.11,76.84 202.65,73.81 199.19,70.77 195.41,67.15 191.64,63.52 187.25,60.16 182.86,56.80 179.48,53.51 176.09,50.21 171.41,45.00 166.74,39.78 163.73,36.13 160.71,32.48 157.83,28.63 154.94,24.78 151.56,20.12 148.17,15.46 145.11,10.20 142.06,4.94 152.20,3.56 162.35,2.17 159.09,6.51 155.84,10.85 152.55,14.02 149.26,17.19 144.90,21.77 140.55,26.34 136.99,30.68 133.44,35.02 129.06,39.13 124.69,43.24 121.02,47.34 117.35,51.43 113.78,54.66 110.22,57.89 106.01,61.54 101.80,65.18 97.83,68.05 93.85,70.93 88.80,75.42 83.75,79.91 78.90,83.47 74.06,87.03 68.55,86.48 63.05,85.94 59.30,82.23 55.56,78.52 52.45,74.99 49.35,71.46 41.31,63.97 33.27,56.49 29.57,52.49 25.88,48.49 22.56,44.69 19.25,40.89 15.58,36.34 11.91,31.79 8.43,26.77 4.96,21.75 -1.40,13.58 -7.76,5.41 -8.30,4.40 -8.83,3.39 -9.11,2.29 -9.39,1.18 -9.39,0.04 -9.40,-1.09 -9.13,-2.20 -8.86,-3.31 -8.34,-4.33 -7.81,-5.34 -7.06,-6.20 -6.31,-7.05 -5.37,-7.71 -4.43,-8.36 -3.37,-8.77 -2.30,-9.18 -1.17,-9.32 -0.04,-9.46 1.09,-9.33 2.22,-9.20 3.29,-8.80 4.36,-8.40 5.30,-7.75 6.24,-7.11 7.00,-6.26 7.76,-5.41 7.76,-5.41 L 7.76,-5.41 Z"></path></g></svg>